<?xml version="1.0" encoding="utf-8"?>
<!-- Generator: Adobe Illustrator 16.0.0, SVG Export Plug-In . SVG Version: 6.00 Build 0)  -->
<!DOCTYPE svg PUBLIC "-//W3C//DTD SVG 1.1//EN" "http://www.w3.org/Graphics/SVG/1.1/DTD/svg11.dtd">
<svg version="1.1" id="Capa_1" xmlns="http://www.w3.org/2000/svg" xmlns:xlink="http://www.w3.org/1999/xlink" x="0px" y="0px"
	 width="115.5px" height="108.5px" viewBox="0 0 115.5 108.5" enable-background="new 0 0 115.5 108.5" xml:space="preserve">
<g>
	<g opacity="0.3">
		<polygon fill="#F5F5F5" points="16.082,33.344 2,28.081 2,48.889 16.082,48.889 		"/>
		<polygon fill="#F5F5F5" points="42.667,43.277 42.667,48.889 56.75,48.889 57.697,48.889 		"/>
		<polygon fill="#F5F5F5" points="37.036,41.173 19.89,34.768 23.934,48.889 34.829,48.889 		"/>
	</g>
	<g>
		
			<rect x="72.946" y="1.329" fill="#F2F2F2" stroke="#F2F2F2" stroke-width="0.5" stroke-miterlimit="10" width="0.367" height="47.573"/>
		
			<rect x="74.495" y="1.329" fill="#F2F2F2" stroke="#F2F2F2" stroke-width="0.5" stroke-miterlimit="10" width="0.369" height="47.573"/>
		
			<rect x="76.046" y="1.329" fill="#F2F2F2" stroke="#F2F2F2" stroke-width="0.5" stroke-miterlimit="10" width="0.368" height="47.573"/>
		
			<rect x="77.598" y="1.329" fill="#F2F2F2" stroke="#F2F2F2" stroke-width="0.5" stroke-miterlimit="10" width="0.367" height="47.573"/>
		
			<rect x="79.148" y="1.329" fill="#F2F2F2" stroke="#F2F2F2" stroke-width="0.5" stroke-miterlimit="10" width="0.365" height="47.573"/>
		
			<rect x="80.698" y="1.329" fill="#F2F2F2" stroke="#F2F2F2" stroke-width="0.5" stroke-miterlimit="10" width="0.367" height="47.573"/>
		
			<rect x="82.25" y="1.329" fill="#F2F2F2" stroke="#F2F2F2" stroke-width="0.5" stroke-miterlimit="10" width="0.366" height="47.573"/>
		
			<rect x="83.799" y="1.329" fill="#F2F2F2" stroke="#F2F2F2" stroke-width="0.5" stroke-miterlimit="10" width="0.367" height="47.573"/>
		
			<rect x="85.351" y="1.329" fill="#F2F2F2" stroke="#F2F2F2" stroke-width="0.5" stroke-miterlimit="10" width="0.365" height="47.573"/>
		
			<rect x="85.351" y="1.329" fill="#F2F2F2" stroke="#F2F2F2" stroke-width="0.5" stroke-miterlimit="10" width="0.365" height="47.573"/>
		
			<rect x="86.901" y="1.329" fill="#F2F2F2" stroke="#F2F2F2" stroke-width="0.5" stroke-miterlimit="10" width="0.366" height="47.573"/>
		
			<rect x="88.45" y="21.274" fill="#F2F2F2" stroke="#F2F2F2" stroke-width="0.5" stroke-miterlimit="10" width="0.367" height="11.011"/>
		
			<rect x="88.45" y="1.329" fill="#F2F2F2" stroke="#F2F2F2" stroke-width="0.5" stroke-miterlimit="10" width="0.367" height="11.029"/>
		
			<rect x="90.001" y="21.274" fill="#F2F2F2" stroke="#F2F2F2" stroke-width="0.5" stroke-miterlimit="10" width="0.367" height="11.011"/>
		
			<rect x="90.001" y="1.329" fill="#F2F2F2" stroke="#F2F2F2" stroke-width="0.5" stroke-miterlimit="10" width="0.367" height="11.029"/>
		
			<rect x="91.553" y="21.274" fill="#F2F2F2" stroke="#F2F2F2" stroke-width="0.5" stroke-miterlimit="10" width="0.365" height="11.011"/>
		
			<rect x="91.553" y="1.329" fill="#F2F2F2" stroke="#F2F2F2" stroke-width="0.5" stroke-miterlimit="10" width="0.365" height="10.999"/>
		
			<rect x="93.104" y="21.274" fill="#F2F2F2" stroke="#F2F2F2" stroke-width="0.5" stroke-miterlimit="10" width="0.365" height="11.011"/>
		
			<rect x="93.104" y="1.329" fill="#F2F2F2" stroke="#F2F2F2" stroke-width="0.5" stroke-miterlimit="10" width="0.365" height="11.029"/>
		
			<rect x="94.654" y="21.259" fill="#F2F2F2" stroke="#F2F2F2" stroke-width="0.5" stroke-miterlimit="10" width="0.367" height="11.026"/>
		
			<rect x="94.654" y="1.329" fill="#F2F2F2" stroke="#F2F2F2" stroke-width="0.5" stroke-miterlimit="10" width="0.367" height="10.987"/>
		
			<rect x="96.204" y="21.259" fill="#F2F2F2" stroke="#F2F2F2" stroke-width="0.5" stroke-miterlimit="10" width="0.367" height="11.026"/>
		
			<rect x="96.204" y="1.329" fill="#F2F2F2" stroke="#F2F2F2" stroke-width="0.5" stroke-miterlimit="10" width="0.367" height="10.999"/>
		
			<rect x="97.754" y="21.287" fill="#F2F2F2" stroke="#F2F2F2" stroke-width="0.5" stroke-miterlimit="10" width="0.367" height="10.998"/>
		
			<rect x="97.754" y="1.329" fill="#F2F2F2" stroke="#F2F2F2" stroke-width="0.5" stroke-miterlimit="10" width="0.367" height="10.999"/>
		
			<rect x="99.306" y="21.274" fill="#F2F2F2" stroke="#F2F2F2" stroke-width="0.5" stroke-miterlimit="10" width="0.366" height="11.011"/>
		
			<rect x="99.306" y="1.329" fill="#F2F2F2" stroke="#F2F2F2" stroke-width="0.5" stroke-miterlimit="10" width="0.366" height="11.029"/>
		
			<rect x="100.855" y="21.259" fill="#F2F2F2" stroke="#F2F2F2" stroke-width="0.5" stroke-miterlimit="10" width="0.367" height="11.026"/>
		
			<rect x="100.855" y="1.329" fill="#F2F2F2" stroke="#F2F2F2" stroke-width="0.5" stroke-miterlimit="10" width="0.367" height="10.999"/>
		
			<rect x="102.407" y="21.274" fill="#F2F2F2" stroke="#F2F2F2" stroke-width="0.5" stroke-miterlimit="10" width="0.366" height="11.011"/>
		
			<rect x="102.407" y="1.329" fill="#F2F2F2" stroke="#F2F2F2" stroke-width="0.5" stroke-miterlimit="10" width="0.366" height="11.029"/>
		
			<rect x="103.958" y="21.287" fill="#F2F2F2" stroke="#F2F2F2" stroke-width="0.5" stroke-miterlimit="10" width="0.366" height="10.998"/>
		
			<rect x="103.958" y="1.329" fill="#F2F2F2" stroke="#F2F2F2" stroke-width="0.5" stroke-miterlimit="10" width="0.366" height="11.029"/>
		
			<rect x="105.521" y="1.329" fill="#F2F2F2" stroke="#F2F2F2" stroke-width="0.5" stroke-miterlimit="10" width="0.354" height="10.999"/>
		
			<rect x="107.072" y="1.329" fill="#F2F2F2" stroke="#F2F2F2" stroke-width="0.5" stroke-miterlimit="10" width="0.353" height="10.999"/>
		
			<rect x="108.694" y="1.329" fill="#F2F2F2" stroke="#F2F2F2" stroke-width="0.5" stroke-miterlimit="10" width="0.365" height="10.987"/>
	</g>
	<path fill="#F2F2F2" d="M81.065,5.816C77.696,2.909,72.593,1.47,65.729,1.47H56.75H42.667h-4.848l-8.444,29.573L20.944,1.47H2
		v22.698l13.928,5.133l-0.17-3.862l-0.663-6.975h0.128l3.386,11.826l19.483,7.183l4.574-16v12.923v4.762l15.675,5.775V34.146h7.908
		c3.454,0,6.428-0.393,8.908-1.162c2.481-0.769,4.54-1.873,6.174-3.323c1.635-1.455,2.848-3.201,3.623-5.271
		c0.775-2.068,1.171-4.374,1.171-6.918C86.126,12.595,84.434,8.71,81.065,5.816z M69.408,21.861c-1.17,0.81-2.692,1.215-4.555,1.215
		h-6.511V12.538h4.455c0.846,0,1.748,0.057,2.72,0.155c0.987,0.112,1.889,0.349,2.736,0.699c0.831,0.349,1.536,0.851,2.084,1.509
		c0.551,0.657,0.833,1.538,0.833,2.641C71.169,19.611,70.578,21.036,69.408,21.861z"/>
	<polygon fill="#F2F2F2" points="19.891,34.768 37.035,41.173 37.685,38.898 19.114,32.053 	"/>
	<polygon fill="#F2F2F2" points="42.667,40.734 42.667,43.277 57.697,48.889 58.342,48.889 58.342,46.514 	"/>
	<polygon fill="#F2F2F2" points="15.998,30.904 2,25.746 2,28.081 16.082,33.344 16.082,32.816 	"/>
</g>
<g>
	<g>
		<path fill="#F5F5F5" d="M2,96.903h2.257c0.911,0,1.511,0.534,1.511,1.452c0,0.917-0.6,1.451-1.511,1.451H2.485v2.179H2V96.903z
			 M2.485,99.395h1.666c0.669,0,1.132-0.342,1.132-1.039s-0.463-1.039-1.132-1.039H2.485V99.395z"/>
		<path fill="#F5F5F5" d="M9.687,100.149c0,1.054-0.612,1.943-1.738,1.943c-1.125,0-1.737-0.89-1.737-1.943s0.612-1.943,1.737-1.943
			C9.074,98.206,9.687,99.096,9.687,100.149z M6.66,100.149c0,0.782,0.428,1.566,1.289,1.566c0.862,0,1.29-0.784,1.29-1.566
			c0-0.783-0.428-1.566-1.29-1.566C7.088,98.583,6.66,99.366,6.66,100.149z"/>
		<path fill="#F5F5F5" d="M13.585,101.985h-0.413v-0.697h-0.014c-0.192,0.479-0.776,0.805-1.31,0.805
			c-1.119,0-1.653-0.904-1.653-1.942c0-1.04,0.534-1.943,1.653-1.943c0.548,0,1.081,0.277,1.274,0.805h0.014v-2.108h0.448V101.985z
			 M11.848,101.716c0.954,0,1.289-0.805,1.289-1.565c0-0.763-0.335-1.566-1.289-1.566c-0.855,0-1.204,0.805-1.204,1.566
			C10.644,100.911,10.993,101.716,11.848,101.716z"/>
		<path fill="#F5F5F5" d="M14.699,100.271c0.007,0.655,0.348,1.445,1.21,1.445c0.656,0,1.011-0.384,1.153-0.939h0.448
			c-0.192,0.834-0.675,1.316-1.601,1.316c-1.167,0-1.659-0.896-1.659-1.942c0-0.969,0.491-1.943,1.659-1.943
			c1.183,0,1.652,1.032,1.617,2.064L14.699,100.271L14.699,100.271z M17.077,99.894c-0.022-0.677-0.441-1.311-1.168-1.311
			c-0.733,0-1.14,0.642-1.21,1.311H17.077z"/>
		<path fill="#F5F5F5" d="M18.128,98.313h0.413v0.861h0.015c0.228-0.591,0.727-0.939,1.389-0.911v0.447
			c-0.813-0.042-1.368,0.556-1.368,1.319v1.956h-0.449V98.313L18.128,98.313z"/>
		<path fill="#F5F5F5" d="M24.482,96.903h0.484v3.667c0,1.033-0.385,1.522-1.481,1.522c-1.167,0-1.423-0.853-1.416-1.736h0.483
			c0.015,0.434-0.027,1.324,0.977,1.324c0.754,0,0.954-0.385,0.954-1.316V96.903L24.482,96.903z"/>
		<path fill="#F5F5F5" d="M28.879,101.985h-0.413v-0.661h-0.015c-0.235,0.491-0.719,0.769-1.267,0.769
			c-0.925,0-1.29-0.541-1.29-1.394v-2.387h0.45v2.392c0.021,0.662,0.27,1.012,0.982,1.012c0.77,0,1.104-0.728,1.104-1.474v-1.931
			h0.449V101.985L28.879,101.985z"/>
		<path fill="#F5F5F5" d="M32.956,101.985h-0.412v-0.697h-0.015c-0.192,0.479-0.775,0.805-1.31,0.805
			c-1.117,0-1.652-0.904-1.652-1.942c0-1.04,0.535-1.943,1.652-1.943c0.547,0,1.082,0.277,1.274,0.805h0.015v-2.108h0.448V101.985z
			 M31.219,101.716c0.954,0,1.289-0.805,1.289-1.565c0-0.763-0.335-1.566-1.289-1.566c-0.854,0-1.203,0.805-1.203,1.566
			C30.016,100.911,30.364,101.716,31.219,101.716z"/>
		<path fill="#F5F5F5" d="M33.814,96.903h0.448v0.72h-0.448V96.903z M33.814,98.313h0.448v3.673h-0.448V98.313z"/>
		<path fill="#F5F5F5" d="M37.714,99.465c-0.121-0.548-0.456-0.883-1.039-0.883c-0.862,0-1.289,0.783-1.289,1.566
			s0.427,1.565,1.289,1.565c0.555,0,1.011-0.434,1.068-1.045h0.448c-0.12,0.882-0.696,1.423-1.516,1.423
			c-1.125,0-1.737-0.89-1.737-1.943s0.612-1.943,1.737-1.943c0.783,0,1.388,0.421,1.488,1.26H37.714z"/>
		<path fill="#F5F5F5" d="M38.822,96.903h0.449v0.72h-0.449V96.903z M38.822,98.313h0.449v3.673h-0.449V98.313z"/>
		<path fill="#F5F5F5" d="M40.088,99.438c0.043-0.861,0.648-1.231,1.488-1.231c0.649,0,1.352,0.199,1.352,1.182v1.951
			c0,0.171,0.086,0.271,0.265,0.271c0.05,0,0.106-0.015,0.143-0.028v0.377c-0.1,0.021-0.171,0.028-0.292,0.028
			c-0.455,0-0.527-0.257-0.527-0.642h-0.014c-0.314,0.478-0.633,0.747-1.338,0.747c-0.677,0-1.231-0.335-1.231-1.074
			c0-1.032,1.004-1.067,1.972-1.182c0.37-0.042,0.576-0.094,0.576-0.499c0-0.605-0.433-0.755-0.959-0.755
			c-0.555,0-0.969,0.256-0.983,0.854H40.088z M42.48,99.979h-0.015c-0.058,0.105-0.257,0.142-0.377,0.164
			c-0.761,0.134-1.709,0.128-1.709,0.846c0,0.449,0.398,0.727,0.818,0.727c0.684,0,1.291-0.434,1.282-1.152v-0.584H42.48z"/>
		<path fill="#F5F5F5" d="M43.831,96.903h0.45v5.084h-0.45V96.903z"/>
		<path fill="#F5F5F5" d="M47.117,100.235v-0.414h1.78v0.414H47.117z"/>
		<path fill="#F5F5F5" d="M52.04,100.313c-0.021,1.046,0.733,1.367,1.659,1.367c0.534,0,1.345-0.293,1.345-1.033
			c0-0.576-0.577-0.806-1.045-0.918l-1.134-0.278c-0.597-0.148-1.146-0.435-1.146-1.224c0-0.499,0.319-1.432,1.75-1.432
			c1.004,0,1.888,0.541,1.879,1.579h-0.483c-0.028-0.774-0.669-1.167-1.388-1.167c-0.662,0-1.274,0.256-1.274,1.013
			c0,0.476,0.357,0.675,0.77,0.774l1.239,0.308c0.719,0.192,1.316,0.504,1.316,1.337c0,0.349-0.143,1.452-1.943,1.452
			c-1.203,0-2.086-0.542-2.029-1.78h0.484V100.313z"/>
		<path fill="#F5F5F5" d="M56.167,99.438c0.042-0.861,0.647-1.231,1.488-1.231c0.649,0,1.352,0.199,1.352,1.182v1.951
			c0,0.171,0.086,0.271,0.264,0.271c0.05,0,0.106-0.015,0.143-0.028v0.377c-0.099,0.021-0.17,0.028-0.292,0.028
			c-0.456,0-0.527-0.257-0.527-0.642H58.58c-0.314,0.478-0.634,0.747-1.339,0.747c-0.676,0-1.231-0.335-1.231-1.074
			c0-1.032,1.004-1.067,1.973-1.182c0.37-0.042,0.576-0.094,0.576-0.499c0-0.605-0.434-0.755-0.96-0.755
			c-0.555,0-0.968,0.256-0.982,0.854H56.167z M58.558,99.979h-0.015c-0.057,0.105-0.255,0.142-0.377,0.164
			c-0.761,0.134-1.709,0.128-1.709,0.846c0,0.449,0.399,0.727,0.819,0.727c0.684,0,1.29-0.434,1.282-1.152L58.558,99.979
			L58.558,99.979z"/>
		<path fill="#F5F5F5" d="M59.893,98.313h0.45v0.634h0.014c0.163-0.441,0.656-0.74,1.175-0.74c1.032,0,1.345,0.541,1.345,1.417
			v2.362h-0.449v-2.291c0-0.634-0.207-1.111-0.933-1.111c-0.712,0-1.139,0.542-1.153,1.261v2.144h-0.448v-3.675H59.893z"/>
		<path fill="#F5F5F5" d="M64.434,98.313h0.747v0.378h-0.747v2.478c0,0.291,0.042,0.463,0.361,0.482c0.129,0,0.256-0.007,0.385-0.02
			v0.385c-0.135,0-0.264,0.014-0.399,0.014c-0.597,0-0.805-0.199-0.796-0.825v-2.513h-0.64v-0.378h0.64v-1.105h0.449V98.313z"/>
		<path fill="#F5F5F5" d="M65.834,96.903h0.448v0.72h-0.448V96.903z M65.834,98.313h0.448v3.673h-0.448V98.313z"/>
		<path fill="#F5F5F5" d="M67.1,99.438c0.044-0.861,0.648-1.231,1.488-1.231c0.648,0,1.352,0.199,1.352,1.182v1.951
			c0,0.171,0.086,0.271,0.264,0.271c0.05,0,0.106-0.015,0.143-0.028v0.377c-0.1,0.021-0.171,0.028-0.292,0.028
			c-0.456,0-0.528-0.257-0.528-0.642h-0.014c-0.313,0.478-0.633,0.747-1.338,0.747c-0.676,0-1.231-0.335-1.231-1.074
			c0-1.032,1.004-1.067,1.972-1.182c0.371-0.042,0.578-0.094,0.578-0.499c0-0.605-0.433-0.755-0.96-0.755
			c-0.555,0-0.97,0.256-0.984,0.854H67.1z M69.492,99.979h-0.014c-0.057,0.105-0.257,0.142-0.377,0.164
			c-0.762,0.134-1.709,0.128-1.709,0.846c0,0.449,0.398,0.727,0.818,0.727c0.685,0,1.29-0.434,1.281-1.152v-0.584H69.492z"/>
		<path fill="#F5F5F5" d="M73.939,101.688c-0.007,1.097-0.429,1.765-1.631,1.765c-0.734,0-1.459-0.326-1.524-1.109h0.449
			c0.099,0.542,0.576,0.734,1.075,0.734c0.825,0,1.182-0.492,1.182-1.39v-0.499h-0.015c-0.206,0.45-0.64,0.757-1.167,0.757
			c-1.176,0-1.659-0.842-1.659-1.889c0-1.01,0.598-1.851,1.659-1.851c0.534,0,0.99,0.334,1.167,0.74h0.015v-0.634h0.449V101.688
			L73.939,101.688z M73.491,100.106c0-0.719-0.335-1.524-1.182-1.524c-0.855,0-1.211,0.763-1.211,1.524
			c0,0.74,0.384,1.46,1.211,1.46C73.084,101.566,73.491,100.854,73.491,100.106z"/>
		<path fill="#F5F5F5" d="M78.08,100.149c0,1.054-0.613,1.943-1.737,1.943c-1.125,0-1.737-0.89-1.737-1.943s0.612-1.943,1.737-1.943
			C77.467,98.206,78.08,99.096,78.08,100.149z M75.053,100.149c0,0.782,0.428,1.566,1.29,1.566c0.861,0,1.289-0.784,1.289-1.566
			c0-0.783-0.427-1.566-1.289-1.566C75.481,98.583,75.053,99.366,75.053,100.149z"/>
		<path fill="#F5F5F5" d="M83.956,101.985h-0.413v-0.697h-0.015c-0.192,0.479-0.774,0.805-1.31,0.805
			c-1.117,0-1.651-0.904-1.651-1.942c0-1.04,0.534-1.943,1.651-1.943c0.548,0,1.083,0.277,1.274,0.805h0.015v-2.108h0.448V101.985z
			 M82.218,101.716c0.955,0,1.29-0.805,1.29-1.565c0-0.763-0.335-1.566-1.29-1.566c-0.854,0-1.203,0.805-1.203,1.566
			C81.015,100.911,81.364,101.716,82.218,101.716z"/>
		<path fill="#F5F5F5" d="M85.07,100.271c0.007,0.655,0.348,1.445,1.21,1.445c0.656,0,1.011-0.384,1.154-0.939h0.448
			c-0.193,0.834-0.676,1.316-1.602,1.316c-1.168,0-1.659-0.896-1.659-1.942c0-0.969,0.491-1.943,1.659-1.943
			c1.183,0,1.652,1.032,1.616,2.064L85.07,100.271L85.07,100.271z M87.449,99.894c-0.023-0.677-0.442-1.311-1.168-1.311
			c-0.733,0-1.14,0.642-1.21,1.311H87.449z"/>
		<path fill="#F5F5F5" d="M88.507,96.903h0.448v5.084h-0.448V96.903z"/>
		<path fill="#F5F5F5" d="M91.878,96.903h3.511v0.413h-3.027v1.836h2.834v0.413h-2.834v2.008h3.062v0.414h-3.546V96.903z"/>
		<path fill="#F5F5F5" d="M98.211,99.388c-0.021-0.556-0.448-0.806-0.961-0.806c-0.398,0-0.868,0.156-0.868,0.634
			c0,0.398,0.456,0.542,0.762,0.619l0.598,0.136c0.511,0.078,1.046,0.377,1.046,1.018c0,0.798-0.791,1.104-1.475,1.104
			c-0.853,0-1.438-0.398-1.509-1.296h0.448c0.037,0.605,0.485,0.919,1.082,0.919c0.421,0,1.004-0.185,1.004-0.698
			c0-0.427-0.397-0.569-0.805-0.669l-0.577-0.128c-0.583-0.156-1.025-0.355-1.025-0.983c0-0.747,0.733-1.032,1.38-1.032
			c0.734,0,1.316,0.386,1.347,1.183H98.211z"/>
		<path fill="#F5F5F5" d="M100.144,98.313h0.749v0.378h-0.749v2.478c0,0.291,0.043,0.463,0.362,0.482c0.13,0,0.257-0.007,0.386-0.02
			v0.385c-0.136,0-0.265,0.014-0.399,0.014c-0.597,0-0.805-0.199-0.797-0.825v-2.513h-0.641v-0.378h0.641v-1.105h0.448V98.313z"/>
		<path fill="#F5F5F5" d="M101.802,100.271c0.007,0.655,0.348,1.445,1.21,1.445c0.655,0,1.011-0.384,1.154-0.939h0.448
			c-0.192,0.834-0.677,1.316-1.602,1.316c-1.168,0-1.659-0.896-1.659-1.942c0-0.969,0.491-1.943,1.659-1.943
			c1.182,0,1.652,1.032,1.617,2.064L101.802,100.271L101.802,100.271z M104.18,99.894c-0.021-0.677-0.441-1.311-1.168-1.311
			c-0.734,0-1.14,0.642-1.21,1.311H104.18z"/>
		<path fill="#F5F5F5" d="M105.231,98.313h0.412v0.861h0.014c0.229-0.591,0.728-0.939,1.389-0.911v0.447
			c-0.811-0.042-1.367,0.556-1.367,1.319v1.956h-0.448V98.313z"/>
		<path fill="#F5F5F5" d="M110.632,100.149c0,1.054-0.611,1.943-1.736,1.943c-1.126,0-1.738-0.89-1.738-1.943
			s0.611-1.943,1.738-1.943C110.021,98.206,110.632,99.096,110.632,100.149z M107.607,100.149c0,0.782,0.427,1.566,1.289,1.566
			c0.862,0,1.29-0.784,1.29-1.566c0-0.783-0.427-1.566-1.29-1.566C108.034,98.583,107.607,99.366,107.607,100.149z"/>
	</g>
	<g>
		<path fill="#F5F5F5" d="M2.351,61.076h4.822l1.573,6.472h0.032l1.571-6.472h4.824V72.08h-3.207v-7.059h-0.03l-1.911,7.059H7.497
			l-1.911-7.059h-0.03v7.059H2.351V61.076z"/>
		<path fill="#F5F5F5" d="M19.976,63.219h-3.052v-2.143h3.052V63.219z M16.924,64.082h3.052v7.998h-3.052V64.082z"/>
		<path fill="#F5F5F5" d="M21.714,64.082h2.944v1.017h0.032c0.569-0.802,1.386-1.218,2.604-1.218c1.434,0,2.743,0.878,2.743,2.713
			v5.486h-3.051v-4.192c0-0.924-0.108-1.571-1.001-1.571c-0.523,0-1.218,0.262-1.218,1.541v4.223h-3.051V64.082L21.714,64.082z"/>
		<path fill="#F5F5F5" d="M34.81,63.219h-3.051v-2.143h3.051V63.219z M31.759,64.082h3.051v7.998h-3.051V64.082z"/>
		<path fill="#F5F5F5" d="M41.172,66.408c-0.016-0.262-0.153-0.463-0.354-0.601c-0.185-0.155-0.432-0.231-0.679-0.231
			c-0.432,0-0.924,0.093-0.924,0.616c0,0.231,0.185,0.339,0.354,0.416c0.508,0.216,1.664,0.278,2.681,0.616
			c1.017,0.323,1.911,0.925,1.911,2.235c0,2.22-2.126,2.82-4.068,2.82c-1.881,0-3.945-0.756-3.992-2.82h2.914
			c0.015,0.277,0.138,0.508,0.369,0.709c0.155,0.139,0.447,0.23,0.817,0.23c0.401,0,1.032-0.153,1.032-0.615
			c0-0.463-0.261-0.601-1.678-0.848c-2.328-0.401-3.268-1.141-3.268-2.512c0-2.019,2.173-2.542,3.777-2.542
			c1.725,0,3.806,0.477,3.884,2.525H41.172L41.172,66.408z"/>
		<path fill="#F5F5F5" d="M49.059,64.082h1.635v1.879h-1.635v2.79c0,0.739,0.17,1.063,0.941,1.063c0.231,0,0.462-0.015,0.693-0.046
			v2.312c-0.618,0-1.31,0.093-1.958,0.093c-1.294,0-2.727-0.201-2.727-2.389v-3.823h-1.355v-1.879h1.355v-2.436h3.051v2.436H49.059z
			"/>
		<path fill="#F5F5F5" d="M54.234,68.768c0.077,0.907,0.602,1.557,1.557,1.557c0.494,0,1.033-0.186,1.28-0.571h2.851
			c-0.617,1.726-2.295,2.527-4.115,2.527c-2.558,0-4.485-1.511-4.485-4.176c0-2.327,1.696-4.222,4.224-4.222
			c3.175,0,4.546,1.771,4.546,4.885H54.234L54.234,68.768z M57.163,67.179c0-0.74-0.554-1.34-1.34-1.34
			c-0.91,0-1.434,0.478-1.572,1.34H57.163z"/>
		<path fill="#F5F5F5" d="M61.365,64.082h2.928v1.277h0.032c0.494-0.955,1.141-1.479,2.25-1.479c0.309,0,0.601,0.046,0.894,0.123
			v2.697c-0.308-0.109-0.585-0.201-1.202-0.201c-1.202,0-1.849,0.71-1.849,2.421v3.159h-3.051V64.082L61.365,64.082z"/>
		<path fill="#F5F5F5" d="M71.32,63.219h-3.052v-2.143h3.052V63.219z M68.268,64.082h3.052v7.998h-3.052V64.082z"/>
		<path fill="#F5F5F5" d="M77.081,72.28c-3.005,0-4.363-1.988-4.363-4.208c0-2.218,1.357-4.191,4.363-4.191
			c3.004,0,4.361,1.974,4.361,4.191C81.442,70.292,80.086,72.28,77.081,72.28z M77.081,66.101c-1.156,0-1.312,1.126-1.312,1.973
			c0,0.848,0.155,1.988,1.312,1.988c1.155,0,1.31-1.141,1.31-1.988C78.39,67.227,78.237,66.101,77.081,66.101z"/>
		<path fill="#F5F5F5" d="M2.366,79.563h5.671c2.991,0,4.039,2.188,4.039,3.761c0,2.665-1.787,3.913-4.315,3.913H5.756v3.329H2.366
			V79.563z M5.756,84.616h1.31c0.879,0,1.803-0.062,1.803-1.172c0-1.001-0.771-1.063-1.603-1.063h-1.51V84.616z"/>
		<path fill="#F5F5F5" d="M21.487,90.565h-2.944v-1.018h-0.031c-0.57,0.802-1.386,1.218-2.604,1.218
			c-1.433,0-2.743-0.878-2.743-2.712v-5.487h3.052v4.192c0,0.925,0.107,1.572,1.002,1.572c0.523,0,1.217-0.261,1.217-1.541v-4.224
			h3.051V90.565z M17.834,81.796h-2.096l1.526-2.297h3.22L17.834,81.796z"/>
		<path fill="#F5F5F5" d="M23.147,79.563h3.051v3.884h0.032c0.462-0.679,1.278-1.078,2.188-1.078c2.682,0,3.406,2.28,3.406,4.159
			c0,2.005-1.095,4.238-3.36,4.238c-1.495,0-1.957-0.57-2.343-1.079h-0.03v0.88h-2.944V79.563L23.147,79.563z M27.433,84.586
			c-1.095,0-1.342,1.034-1.342,1.974c0,0.955,0.247,1.988,1.342,1.988c1.093,0,1.339-1.034,1.339-1.988
			C28.772,85.62,28.526,84.586,27.433,84.586z"/>
		<path fill="#F5F5F5" d="M33.19,79.563h3.051v11.003H33.19V79.563z"/>
		<path fill="#F5F5F5" d="M41.095,81.704h-3.052v-2.142h3.052V81.704z M38.043,82.566h3.052v7.999h-3.052V82.566z"/>
		<path fill="#F5F5F5" d="M47.997,85.603c-0.031-0.323-0.139-0.584-0.339-0.755c-0.184-0.169-0.447-0.262-0.771-0.262
			c-1.17,0-1.341,1.017-1.341,1.988c0,0.971,0.17,1.974,1.341,1.974c0.663,0,1.125-0.54,1.187-1.173h2.912
			c-0.292,2.173-2.002,3.391-4.16,3.391c-2.404,0-4.331-1.664-4.331-4.191c0-2.528,1.927-4.207,4.331-4.207
			c2.095,0,3.885,1.033,4.068,3.235H47.997z"/>
		<path fill="#F5F5F5" d="M56.27,90.766c-3.004,0-4.361-1.987-4.361-4.206c0-2.22,1.356-4.192,4.361-4.192
			c3.005,0,4.361,1.973,4.361,4.192C60.631,88.778,59.274,90.766,56.27,90.766z M56.27,84.586c-1.155,0-1.311,1.125-1.311,1.974
			c0,0.848,0.155,1.988,1.311,1.988c1.156,0,1.31-1.142,1.31-1.988C57.58,85.711,57.425,84.586,56.27,84.586z"/>
		<path fill="#F5F5F5" d="M67.144,79.563h8.507v2.82h-5.117v1.372h4.393v2.619h-4.393v4.192h-3.39V79.563z"/>
		<path fill="#F5F5F5" d="M79.915,81.704h-3.051v-2.142h3.051V81.704z M76.864,82.566h3.051v7.999h-3.051V82.566z"/>
		<path fill="#F5F5F5" d="M86.277,84.895c-0.016-0.262-0.154-0.463-0.354-0.602c-0.184-0.154-0.432-0.23-0.679-0.23
			c-0.432,0-0.924,0.093-0.924,0.616c0,0.23,0.185,0.34,0.354,0.416c0.508,0.217,1.665,0.278,2.682,0.616
			c1.017,0.325,1.91,0.924,1.91,2.235c0,2.22-2.125,2.821-4.066,2.821c-1.881,0-3.945-0.755-3.993-2.821h2.914
			c0.015,0.277,0.138,0.509,0.369,0.709c0.155,0.139,0.448,0.23,0.818,0.23c0.4,0,1.031-0.153,1.031-0.615
			c0-0.463-0.261-0.602-1.678-0.848c-2.328-0.4-3.268-1.142-3.268-2.512c0-2.019,2.173-2.542,3.777-2.542
			c1.726,0,3.806,0.476,3.884,2.527h-2.776V84.895z"/>
		<path fill="#F5F5F5" d="M95.659,85.603c-0.032-0.323-0.138-0.584-0.338-0.755c-0.185-0.169-0.448-0.262-0.771-0.262
			c-1.171,0-1.34,1.017-1.34,1.988c0,0.971,0.169,1.974,1.34,1.974c0.662,0,1.125-0.54,1.186-1.173h2.913
			c-0.292,2.173-2.003,3.391-4.159,3.391c-2.404,0-4.331-1.664-4.331-4.191c0-2.528,1.927-4.207,4.331-4.207
			c2.094,0,3.883,1.033,4.067,3.235H95.659z"/>
		<path fill="#F5F5F5" d="M107.707,88.778c0,0.602,0.031,1.278,0.37,1.787h-3.113c-0.077-0.216-0.125-0.54-0.107-0.756h-0.031
			c-0.647,0.74-1.587,0.956-2.574,0.956c-1.542,0-2.82-0.739-2.82-2.42c0-2.526,2.958-2.434,4.516-2.726
			c0.416-0.078,0.832-0.202,0.832-0.711c0-0.539-0.509-0.738-1-0.738c-0.941,0-1.126,0.478-1.142,0.816h-2.835
			c0.093-2.25,2.219-2.619,4.114-2.619c3.822,0,3.791,1.587,3.791,3.128V88.778z M104.779,86.976
			c-0.37,0.185-0.786,0.292-1.203,0.384c-0.678,0.155-1.032,0.324-1.032,0.864c0,0.37,0.4,0.74,0.955,0.74
			c0.695,0,1.233-0.416,1.279-1.25V86.976z"/>
		<path fill="#F5F5F5" d="M109.382,79.563h3.051v11.003h-3.051V79.563z"/>
	</g>
</g>
</svg>
